<?xml version="1.0"?>
<svg version="1.1" xmlns="http://www.w3.org/2000/svg" width="250px" height="100px" style=""><path fill="#e01919" d="M45.43,63.79c0,8.4-2.87,14.7-7.63,18.76c-4.34,3.64-10.43,5.25-17.36,5.25l-13.37,0c-1.4,0-2.03-0.35-2.03-1.96l0-44.38c0-1.47,0.42-2.1,2.17-2.1l10.08,0c8.05,0,13.51,0.91,18.13,3.57c6.3,3.64,10.01,10.5,10.01,20.86z M35.77,63.72c0-6.37-1.89-11.2-5.46-13.86c-2.87-2.1-6.58-2.87-11.06-2.87l-5.11,0l0,33.25l5.39,0c4.83,0,8.89-0.77,11.83-3.71c2.8-2.8,4.41-7,4.41-12.81z M97.055,86.68c0,0.7-0.35,1.12-1.26,1.12l-6.23,0c-1.47,0-1.96-0.56-2.38-1.68l-3.64-10.29l-17.71,0l-3.64,10.5c-0.28,0.91-0.77,1.47-1.89,1.47l-6.23,0c-0.7,0-0.98-0.35-0.98-0.91c0-0.21,0-0.49,0.14-0.77l17.08-45.36c0.35-0.84,0.84-1.4,1.89-1.4l5.6,0c1.05,0,1.68,0.49,1.96,1.26l17.15,45.15c0.14,0.35,0.14,0.63,0.14,0.91z M81.165,69.04l-4.97-14.77c-0.63-1.96-1.05-3.43-1.4-4.55l-0.14,0c-0.35,1.19-0.77,2.66-1.47,4.62l-4.97,14.7l12.95,0z M157.92,85.91c0.07,1.19-0.28,1.89-1.61,1.89l-5.67,0c-1.47,0-1.75-0.7-1.82-2.31l-0.98-28.42l-0.14,0l-11.9,29.47c-0.42,1.12-1.12,1.26-1.89,1.26l-2.45,0c-1.05,0-1.68-0.21-2.17-1.33l-13.23-29.4l-0.14,0l-0.63,28.98c0,1.54-0.63,1.75-1.89,1.75l-4.76,0c-1.33,0-1.89-0.49-1.82-1.82l1.75-44.73c0.07-1.47,0.56-1.89,1.68-1.89l4.13,0c1.4,0,1.89,0.49,2.38,1.54l16.17,34.58l0.14,0l14.77-34.58c0.42-1.05,0.98-1.54,2.24-1.54l4.13,0c1.12,0,1.54,0.42,1.61,1.54z M212.905,85.91c0,1.54-0.63,1.89-1.68,1.89l-4.69,0c-1.05,0-1.96-0.49-2.66-1.47l-22.82-31.22l-0.14,0l0,30.87c0,1.33-0.63,1.82-1.82,1.82l-5.04,0c-1.33,0-1.89-0.35-1.89-1.75l0-44.8c0-1.47,0.63-1.89,1.89-1.89l4.55,0c1.12,0,1.68,0.35,2.38,1.33l23.03,31.64l0.14,0l0-31.15c0-1.33,0.63-1.82,1.82-1.82l5.25,0c1.47,0,1.68,0.77,1.68,1.89l0,44.66z M235.13,84.02c0,2.87-2.59,4.69-4.97,4.69c-2.45,0-4.97-1.68-4.97-4.62c0-3.01,2.38-4.76,4.97-4.76c2.52,0,4.97,1.75,4.97,4.69z"/><path fill="#" d=""/></svg>
